<svg xmlns="http://www.w3.org/2000/svg" aria-hidden="true" style="position:absolute;width:0;height:0;overflow:hidden">
  <defs>
    <symbol id="icon-menu-burger" viewBox="0 0 32 32">
      <path d="M26.733 14.667H5.266c-.7 0-1.267.567-1.267 1.267v.133c0 .7.567 1.267 1.267 1.267h21.467c.7 0 1.267-.567 1.267-1.267v-.133c0-.7-.567-1.267-1.267-1.267zM26.733 21.333H5.266c-.7 0-1.267.567-1.267 1.267v.133c0 .7.567 1.267 1.267 1.267h21.467c.7 0 1.267-.567 1.267-1.267V22.6c0-.7-.567-1.267-1.267-1.267zM26.733 8H5.266c-.7 0-1.267.567-1.267 1.267V9.4c0 .7.567 1.267 1.267 1.267h21.467c.7 0 1.267-.567 1.267-1.267v-.133C28 8.567 27.433 8 26.733 8z"/>
    </symbol>
    <symbol id="icon-close-white" viewBox="0 0 32 32">
      <path d="M23.884 6.706 16 14.59 8.116 6.706a.995.995 0 0 0-1.38.031 1 1 0 0 0-.031 1.38l7.88 7.884-7.882 7.882a1.002 1.002 0 0 0-.018 1.427.998.998 0 0 0 1.427-.015l7.886-7.882 7.884 7.884a1 1 0 0 0 1.38-.03 1 1 0 0 0 .03-1.38l-7.884-7.884 7.884-7.886a1.002 1.002 0 0 0 .018-1.427.998.998 0 0 0-1.427.015v.002z"/>
    </symbol>
    <symbol id="icon-cloce-black" viewBox="0 0 32 32">
      <path d="m17.253 15.751 7.369-7.317a.875.875 0 0 0-.047-1.198.893.893 0 0 0-1.206-.046L16 14.507 8.631 7.181a.896.896 0 0 0-1.262 0 .885.885 0 0 0 0 1.254l7.378 7.317-7.378 7.317a.873.873 0 0 0-.249.992.883.883 0 0 0 .503.5.896.896 0 0 0 1-.247l7.378-7.317 7.369 7.317a.894.894 0 0 0 1.206-.046.875.875 0 0 0 .047-1.198l-7.369-7.317z"/>
    </symbol>
    <symbol id="icon-arrow-button" viewBox="0 0 32 32">
      <path d="M10.586 3.272a2 2 0 0 0 0 2.828l9.9 9.9-9.9 9.9a1.998 1.998 0 0 0 .025 2.804 2.001 2.001 0 0 0 2.804.025l11.314-11.314a2 2 0 0 0 0-2.828L13.415 3.273a2 2 0 0 0-2.828 0z"/>
    </symbol>
    <symbol id="icon-ice-crema" viewBox="0 0 32 32">
      <path d="M16.108.107c.08.214.241 1.252.241 1.573 0 .797-.295 1.54-.837 2.122-.449.482-.897.75-1.975 1.185-1.198.489-1.694.783-2.256 1.339-.569.569-.904 1.192-1.024 1.921-.134.797 0 1.359.408 1.68l.208.161-.328.208c-.663.435-1.868 1.459-2.075 1.774-.402.603-.361 1.165.094 1.392l.214.107-.241.228c-.361.341-.435.576-.382 1.192.033.408.02.629-.074.964-.114.435-.114.442.033.75.147.301.562.683.937.843.181.08.187.107.228.723.02.355.053 1.486.08 2.517.02 1.031.067 1.975.107 2.089a.79.79 0 0 0 .274.361c.388.268.656.556.83.89.194.382.408 1.319 1.058 4.559l.455 2.276.281.268c.536.529 1.56.77 3.247.77 1.694 0 2.705-.234 3.24-.763l.288-.274.415-2.109c.917-4.613.997-4.867 1.714-5.436.221-.181.435-.402.475-.502.047-.114.094-.991.127-2.316.027-1.178.067-2.343.094-2.591l.04-.449.435-.328c.549-.422.763-.803.763-1.393-.007-.696-.462-1.459-1.292-2.142l-.395-.321.194-.274c.81-1.118.301-2.664-1.205-3.695l-.455-.315.167-.174c.743-.797.864-3.173.241-4.827-.375-.984-1.232-2.055-2.283-2.845C17.659.857 16.239 0 16.112 0c-.027 0-.027.047-.007.107zm1.928 2.336c.355.348.783.823.951 1.064.997 1.392 1.252 3.14.649 4.425-.241.522-.964 1.299-1.633 1.761-1.024.71-3.327 1.901-4.934 2.557-2.584 1.051-4.084 1.252-4.258.562-.067-.261.127-.469.951-1.018.743-.509 4.077-2.986 4.137-3.086.02-.027-.321.127-.75.341-1.453.736-2.142.596-2.109-.428.02-.743.556-1.587 1.299-2.069.187-.12.77-.388 1.305-.603 1.761-.71 2.296-1.071 2.892-1.962.355-.529.743-1.506.77-1.921.007-.147.034-.261.054-.261s.321.288.676.636zm1.828 7.606c.489.274.997.743 1.218 1.111.388.663.187 1.325-.649 2.169-.91.924-2.464 1.808-4.171 2.37-1.573.515-3.079.756-5.235.83l-1.339.047.87.054c1.125.074 3.3.007 4.144-.127 2.243-.355 4.151-1.064 5.516-2.042.308-.221.629-.402.716-.402.221 0 1.185.924 1.379 1.312.107.221.134.382.114.596-.1.89-1.185 1.366-3.802 1.68-3.2.382-7.384.007-9.172-.817-.844-.388-.984-.609-.77-1.198.067-.187.08-.408.054-.723-.033-.415-.027-.469.12-.623.335-.361.897-.569 2.959-1.091a28.11 28.11 0 0 0 2.176-.656c1.138-.415 3.274-1.493 4.264-2.156.93-.616 1.064-.643 1.607-.335zm-8.89 8.194c1.406.408 2.651.529 4.967.482 1.741-.034 2.812-.141 4.358-.415.315-.053.589-.1.623-.1.074 0 .053 2.571-.027 3.247-.087.716-.281 1.272-.489 1.406-.214.141-1.285.288-2.718.368-2.939.161-5.958 0-6.895-.375-.509-.207-.562-.475-.569-2.959 0-1.654.013-1.881.1-1.848.053.02.348.107.649.194zm1.586 5.69c.482.06 1.004.121 1.165.141l.288.034-.254.281c-.328.355-.83 1.064-1.011 1.426-.207.415-.274.442-.582.274l-.261-.147-.147-.91c-.08-.495-.167-.971-.187-1.051-.06-.174-.12-.174.991-.047zm7.137-.074c0 .013-.033.187-.067.382-.04.201-.208 1.292-.375 2.43-.341 2.377-.569 3.495-.777 3.869-.288.502-.977.797-2.095.89-.435.034-1.747-.053-1.821-.12-.053-.06 1.098-1.486 1.279-1.58.167-.094.214-.08.783.214.663.348.997.402.997.181s-.174-.435-.602-.73c-.395-.281-.536-.442-.536-.629 0-.053.194-.355.428-.669s.576-.817.75-1.118l.328-.542.301.04c.609.087.77.08.75-.053-.013-.067-.127-.261-.254-.422-.127-.167-.228-.335-.228-.368 0-.127.623-1.299.823-1.546.174-.214.315-.321.315-.228zm-4.184.536c.335.221 1.593 1.312 1.674 1.446.034.06-1.259 2.082-1.513 2.37-.027.034-.167-.033-.308-.141a22.133 22.133 0 0 0-1.165-.803l-.904-.596.542-.917c.964-1.613.944-1.587 1.151-1.587.107 0 .341.1.522.228zm2.537.241c-.234.288-.428.469-.509.469-.174 0-.455-.154-.93-.502l-.395-.288.79-.047c.428-.02.844-.047.917-.06.536-.087.536-.08.127.428zm-5.061 3.22c.616.241 1.66.81 1.962 1.064.214.174.214.187.127.402a6.675 6.675 0 0 1-.415.716c-.174.268-.375.602-.449.743-.214.415-.281.449-.723.328-.475-.141-.73-.382-.864-.817-.181-.609-.469-2.33-.435-2.598.013-.1.295-.04.797.161z"/>
    </symbol>
    <symbol id="icon-ellipse-slider" viewBox="0 0 32 32">
      <path d="M32 16c0 8.837-7.163 16-16 16S0 24.837 0 16 7.163 0 16 0s16 7.163 16 16z"/>
    </symbol>
  </defs>
</svg>
<svg xmlns="http://www.w3.org/2000/svg" aria-hidden="true" style="position:absolute;width:0;height:0;overflow:hidden">
  <defs>
    <symbol id="icon-ce" viewBox="0 0 76 32">
      <path d="m20.821 20.22-1.462 2.244.029.019 1.433-2.263zm15.744.759 2.677-.059-.069-3.1-3.056.519.448 2.64zm.183 8.238.682 2.59 2.043-.538-.047-2.112-2.677.059zm-20.661.392.601-2.61-.016-.004-.585 2.613zm-10.2-4.55 1.733-2.042-.004-.003-1.729 2.046zM2.2 16.69l2.678.013v-.013H2.2zm1.281-5.859L1.078 9.649l-.002.004 2.405 1.178zm8.212-7.009.95 2.504.01-.004-.96-2.5zm26.311-.68 2.67.208.176-2.261-2.202-.546-.644 2.599zm-.654 8.395-.499 2.631 2.937.557.232-2.98-2.67-.208zm-7.14-3.436c-4.019 0-7.398.429-9.866 1.515-1.265.556-2.415 1.339-3.253 2.444-.864 1.14-1.276 2.468-1.276 3.872h5.356c0-.314.076-.488.188-.636.139-.183.453-.474 1.141-.776 1.438-.632 3.918-1.062 7.71-1.062V8.102zm-14.395 7.83c0 2.756 1.235 5.029 3.544 6.533l2.924-4.487c-.795-.518-1.112-1.105-1.112-2.045h-5.356zm3.573 6.552c2.188 1.386 5.074 1.906 8.311 1.906v-5.356c-2.795 0-4.495-.473-5.445-1.075l-2.866 4.525zm8.311 1.906c3.178 0 6.283-.256 9.314-.77l-.896-5.281a50.237 50.237 0 0 1-8.418.695v5.356zm6.189-3.351.183 8.238 5.355-.119-.183-8.238-5.355.119zm2.179 5.589c-3.062.806-6.439 1.219-10.146 1.219v5.356c4.104 0 7.945-.458 11.509-1.396l-1.363-5.18zm-10.146 1.22c-3.783 0-6.844-.297-9.233-.847l-1.202 5.22c2.912.671 6.406.984 10.435.984v-5.356zm-9.249-.851c-2.556-.572-4.402-1.179-5.634-1.781l-2.351 4.813c1.767.863 4.071 1.581 6.815 2.195l1.169-5.227zm-5.634-1.781c-1.32-.645-2.454-1.381-3.418-2.199L4.155 27.1c1.338 1.135 2.854 2.108 4.533 2.927l2.351-4.813zm-3.422-2.202c-1.82-1.538-2.752-3.548-2.738-6.31l-5.356-.027c-.021 4.212 1.505 7.781 4.637 10.428l3.457-4.091zM4.878 16.69c0-1.8.353-3.343 1.008-4.68l-4.81-2.357C.022 11.803-.479 14.166-.479 16.69h5.356zm1.006-4.677c1.218-2.477 3.37-4.401 6.759-5.687l-1.9-5.008C6.321 2.996 2.998 5.745 1.078 9.649l4.806 2.364zm6.769-5.691c3.563-1.368 7.54-2.071 11.96-2.071v-5.356c-4.995 0-9.632.796-13.88 2.427l1.92 5zm11.96-2.071c4.508 0 8.754.501 12.746 1.49L38.648.542C34.201-.561 29.52-1.106 24.613-1.106V4.25zm10.721-1.317-.654 8.395 5.34.416.654-8.395-5.34-.416zm2.515 5.972c-2.786-.528-5.338-.805-7.639-.805v5.356c1.884 0 4.092.228 6.641.712l.998-5.263zm26.13 4.279-.015 2.678 2.722.015-.029-2.722-2.678.028zm-1.151-3.478-1.822 1.963.023.021 1.799-1.984zm-6.669.261 1.855 1.932.02-.019-1.874-1.913zm-1.621 3.165-2.643-.434-.509 3.095 3.136.017.015-2.678zm19.693 14.279 1.618 2.134.963-.73.09-1.205-2.671-.2zm-5.78 2.145-.576-2.616-.016.003.591 2.612zm-20.085-.732-.913 2.518.022.008.891-2.525zm-4.577-2.432-1.662 2.1.016.013.016.013 1.63-2.125zm-3.06-3.845-2.401 1.187.005.011 2.395-1.198zm3.138-16.241 1.781 2 .001-.001-1.782-1.999zm24.48-2.903L69.418.949l-.025-.011-1.046 2.465zm6.146 5.649-2.409 1.171.007.015 2.401-1.186zm1.046 4.681 2.671.194.007-.097v-.097h-2.678zm-.314 4.316-.013 2.678 2.503.012.181-2.496-2.671-.194zm-21.21-.105.013-2.678-3.494-.017.891 3.378 2.59-.683zm3.034 3.74-1.318 2.331.011.006 1.307-2.338zm16.267-.915v-2.678h-.535l-.494.206 1.029 2.472zm1.412 0 2.671.2.215-2.878h-2.886v2.678zm-8.071-7.613c-.021-1.937-.466-4.016-2.03-5.434l-3.599 3.967c-.032-.029.03.005.107.237.081.245.159.655.165 1.286l5.356-.057zm-2.006-5.413c-1.406-1.305-3.249-1.736-5.065-1.736v5.356c1.043 0 1.361.25 1.421.304l3.645-3.925zm-5.066-1.735c-1.995 0-3.849.625-5.301 2.047l3.749 3.825c.292-.286.721-.516 1.552-.516V6.009zm-5.28 2.027c-1.318 1.266-2.113 2.859-2.41 4.662l5.285.869c.122-.743.408-1.259.834-1.667l-3.709-3.864zm.218 7.775 9.441.052.03-5.356-9.441-.052-.03 5.356zm18.09 9.467c-.587.445-2.019 1.065-4.738 1.663l1.151 5.231c2.826-.622 5.247-1.432 6.822-2.626l-3.236-4.269zm-4.753 1.667c-2.595.588-5.09.876-7.49.876v5.356c2.831 0 5.723-.34 8.673-1.008l-1.183-5.224zm-7.49.876c-2.524 0-4.602-.119-6.259-.342l-.715 5.308c1.969.265 4.302.39 6.974.39v-5.356zm-6.259-.343a24.264 24.264 0 0 1-4.854-1.179l-1.783 5.051a29.676 29.676 0 0 0 5.922 1.437l.715-5.308zm-4.832-1.171c-1.566-.568-2.84-1.257-3.86-2.04l-3.26 4.25c1.525 1.17 3.302 2.103 5.294 2.825l1.826-5.035zm-3.828-2.014c-.919-.728-1.701-1.69-2.327-2.942l-4.791 2.395c.943 1.886 2.202 3.487 3.793 4.747l3.325-4.2zm-2.322-2.932c-.563-1.139-.899-2.606-.899-4.488h-5.356c0 2.511.449 4.828 1.454 6.862l4.801-2.374zm-.899-4.488c0-1.884.34-3.548.982-5.028l-4.914-2.132c-.962 2.217-1.424 4.615-1.424 7.16h5.356zm.982-5.028c.675-1.556 1.502-2.706 2.436-3.538l-3.562-4c-1.611 1.435-2.859 3.266-3.788 5.406l4.914 2.132zm2.437-3.539c2.878-2.566 7.269-4.055 13.596-4.055v-5.356c-7.098 0-12.96 1.668-17.16 5.413l3.565 3.998zm13.596-4.055c2.839 0 5.517.541 8.056 1.618L69.393.938c-3.215-1.364-6.605-2.043-10.147-2.043v5.356zm8.031 1.607c2.37 1.034 3.902 2.5 4.809 4.365l4.817-2.342c-1.534-3.156-4.1-5.456-7.484-6.933l-2.142 4.909zm4.816 4.381c.5 1.013.769 2.163.769 3.496h5.356c0-2.084-.428-4.056-1.323-5.867l-4.802 2.372zm.776 3.301-.314 4.315 5.342.389.314-4.315-5.342-.389zm2.37 1.832-21.211-.105-.026 5.356 21.21.105.027-5.356zm-23.813 3.256c.626 2.374 2.157 4.174 4.305 5.388l2.636-4.663c-1.06-.599-1.551-1.292-1.762-2.091l-5.179 1.366zm4.317 5.394c2.172 1.214 4.888 1.701 7.924 1.701v-5.356c-2.544 0-4.239-.421-5.31-1.019l-2.614 4.675zm7.923 1.701c3.257 0 6.835-.881 10.68-2.481l-2.058-4.945c-3.443 1.433-6.299 2.07-8.622 2.07v5.356zm9.651-2.275h1.412v-5.356h-1.412v5.356zm-1.258-2.878-.497 6.643 5.341.399.497-6.643-5.341-.4z"/>
    </symbol>
  </defs>
</svg>