<svg aria-hidden="true" style="position: absolute; width: 0; height: 0; overflow: hidden;" version="1.1" xmlns="http://www.w3.org/2000/svg" xmlns:xlink="http://www.w3.org/1999/xlink">
<defs>
<symbol id="icon-ce" viewBox="0 0 76 32">
<path d="M20.821 20.22l-1.462 2.244 0.029 0.019 1.433-2.263zM36.565 20.979l2.677-0.059-0.069-3.1-3.056 0.519 0.448 2.64zM36.748 29.217l0.682 2.59 2.043-0.538-0.047-2.112-2.677 0.059zM16.087 29.609l0.601-2.61-0.016-0.004-0.585 2.613zM5.887 25.059l1.733-2.042-0.004-0.003-1.729 2.046zM2.2 16.69l2.678 0.013v-0.013h-2.678zM3.481 10.831l-2.403-1.182-0.002 0.004 2.405 1.178zM11.693 3.822l0.95 2.504 0.010-0.004-0.96-2.5zM38.004 3.142l2.67 0.208 0.176-2.261-2.202-0.546-0.644 2.599zM37.35 11.537l-0.499 2.631 2.937 0.557 0.232-2.98-2.67-0.208zM30.21 8.101c-4.019 0-7.398 0.429-9.866 1.515-1.265 0.556-2.415 1.339-3.253 2.444-0.864 1.14-1.276 2.468-1.276 3.872h5.356c0-0.314 0.076-0.488 0.188-0.636 0.139-0.183 0.453-0.474 1.141-0.776 1.438-0.632 3.918-1.062 7.71-1.062v-5.356zM15.815 15.931c0 2.756 1.235 5.029 3.544 6.533l2.924-4.487c-0.795-0.518-1.112-1.105-1.112-2.045h-5.356zM19.388 22.483c2.188 1.386 5.074 1.906 8.311 1.906v-5.356c-2.795 0-4.495-0.473-5.445-1.075l-2.866 4.525zM27.699 24.389c3.178 0 6.283-0.256 9.314-0.77l-0.896-5.281c-2.723 0.462-5.528 0.695-8.418 0.695v5.356zM33.888 21.038l0.183 8.238 5.355-0.119-0.183-8.238-5.355 0.119zM36.067 26.627c-3.062 0.806-6.439 1.219-10.146 1.219v5.356c4.104 0 7.945-0.458 11.509-1.396l-1.363-5.18zM25.921 27.847c-3.783 0-6.844-0.297-9.233-0.847l-1.202 5.22c2.912 0.671 6.406 0.984 10.435 0.984v-5.356zM16.672 26.996c-2.556-0.572-4.402-1.179-5.634-1.781l-2.351 4.813c1.767 0.863 4.071 1.581 6.815 2.195l1.169-5.227zM11.038 25.215c-1.32-0.645-2.454-1.381-3.418-2.199l-3.465 4.084c1.338 1.135 2.854 2.108 4.533 2.927l2.351-4.813zM7.616 23.013c-1.82-1.538-2.752-3.548-2.738-6.31l-5.356-0.027c-0.021 4.212 1.505 7.781 4.637 10.428l3.457-4.091zM4.878 16.69c0-1.8 0.353-3.343 1.008-4.68l-4.81-2.357c-1.054 2.15-1.555 4.513-1.555 7.037h5.356zM5.884 12.013c1.218-2.477 3.37-4.401 6.759-5.687l-1.9-5.008c-4.422 1.678-7.745 4.427-9.665 8.331l4.806 2.364zM12.653 6.322c3.563-1.368 7.54-2.071 11.96-2.071v-5.356c-4.995 0-9.632 0.796-13.88 2.427l1.92 5zM24.613 4.251c4.508 0 8.754 0.501 12.746 1.49l1.289-5.199c-4.447-1.103-9.128-1.648-14.035-1.648v5.356zM35.334 2.934l-0.654 8.395 5.34 0.416 0.654-8.395-5.34-0.416zM37.849 8.906c-2.786-0.528-5.338-0.805-7.639-0.805v5.356c1.884 0 4.092 0.228 6.641 0.712l0.998-5.263zM63.979 13.185l-0.015 2.678 2.722 0.015-0.029-2.722-2.678 0.028zM62.828 9.707l-1.822 1.963 0.023 0.021 1.799-1.984zM56.159 9.968l1.855 1.932 0.020-0.019-1.874-1.913zM54.538 13.133l-2.643-0.434-0.509 3.095 3.136 0.017 0.015-2.678zM74.231 27.412l1.618 2.134 0.963-0.73 0.090-1.205-2.671-0.2zM68.451 29.557l-0.576-2.616-0.016 0.003 0.591 2.612zM48.366 28.825l-0.913 2.518 0.022 0.008 0.891-2.525zM43.789 26.393l-1.662 2.1 0.016 0.013 0.016 0.013 1.63-2.125zM40.729 22.548l-2.401 1.187 0.005 0.011 2.395-1.198zM43.867 6.307l1.781 2 0.001-0.001-1.782-1.999zM68.347 3.404l1.071-2.455-0.025-0.011-1.046 2.465zM74.493 9.053l-2.409 1.171 0.007 0.015 2.401-1.186zM75.539 13.734l2.671 0.194 0.007-0.097v-0.097h-2.678zM75.225 18.050l-0.013 2.678 2.503 0.012 0.181-2.496-2.671-0.194zM54.015 17.945l0.013-2.678-3.494-0.017 0.891 3.378 2.59-0.683zM57.049 21.685l-1.318 2.331 0.011 0.006 1.307-2.338zM73.316 20.77v-2.678h-0.535l-0.494 0.206 1.029 2.472zM74.728 20.77l2.671 0.2 0.215-2.878h-2.886v2.678zM66.657 13.157c-0.021-1.937-0.466-4.016-2.030-5.434l-3.599 3.967c-0.032-0.029 0.030 0.005 0.107 0.237 0.081 0.245 0.159 0.655 0.165 1.286l5.356-0.057zM64.651 7.744c-1.406-1.305-3.249-1.736-5.065-1.736v5.356c1.043 0 1.361 0.25 1.421 0.304l3.645-3.925zM59.585 6.009c-1.995 0-3.849 0.625-5.301 2.047l3.749 3.825c0.292-0.286 0.721-0.516 1.552-0.516v-5.356zM54.305 8.036c-1.318 1.266-2.113 2.859-2.41 4.662l5.285 0.869c0.122-0.743 0.408-1.259 0.834-1.667l-3.709-3.864zM54.523 15.811l9.441 0.052 0.030-5.356-9.441-0.052-0.030 5.356zM72.613 25.278c-0.587 0.445-2.019 1.065-4.738 1.663l1.151 5.231c2.826-0.622 5.247-1.432 6.822-2.626l-3.236-4.269zM67.86 26.945c-2.595 0.588-5.090 0.876-7.49 0.876v5.356c2.831 0 5.723-0.34 8.673-1.008l-1.183-5.224zM60.37 27.821c-2.524 0-4.602-0.119-6.259-0.342l-0.715 5.308c1.969 0.265 4.302 0.39 6.974 0.39v-5.356zM54.111 27.478c-1.626-0.219-3.243-0.61-4.854-1.179l-1.783 5.051c1.946 0.687 3.921 1.167 5.922 1.437l0.715-5.308zM49.279 26.307c-1.566-0.568-2.84-1.257-3.86-2.040l-3.26 4.25c1.525 1.17 3.302 2.103 5.294 2.825l1.826-5.035zM45.451 24.293c-0.919-0.728-1.701-1.69-2.327-2.942l-4.791 2.395c0.943 1.886 2.202 3.487 3.793 4.747l3.325-4.2zM43.129 21.361c-0.563-1.139-0.899-2.606-0.899-4.488h-5.356c0 2.511 0.449 4.828 1.454 6.862l4.801-2.374zM42.23 16.873c0-1.884 0.34-3.548 0.982-5.028l-4.914-2.132c-0.962 2.217-1.424 4.615-1.424 7.16h5.356zM43.212 11.845c0.675-1.556 1.502-2.706 2.436-3.538l-3.562-4c-1.611 1.435-2.859 3.266-3.788 5.406l4.914 2.132zM45.649 8.306c2.878-2.566 7.269-4.055 13.596-4.055v-5.356c-7.098 0-12.96 1.668-17.16 5.413l3.565 3.998zM59.245 4.251c2.839 0 5.517 0.541 8.056 1.618l2.092-4.931c-3.215-1.364-6.605-2.043-10.147-2.043v5.356zM67.276 5.858c2.37 1.034 3.902 2.5 4.809 4.365l4.817-2.342c-1.534-3.156-4.1-5.456-7.484-6.933l-2.142 4.909zM72.092 10.239c0.5 1.013 0.769 2.163 0.769 3.496h5.356c0-2.084-0.428-4.056-1.323-5.867l-4.802 2.372zM72.868 13.54l-0.314 4.315 5.342 0.389 0.314-4.315-5.342-0.389zM75.238 15.372l-21.211-0.105-0.026 5.356 21.21 0.105 0.027-5.356zM51.425 18.628c0.626 2.374 2.157 4.174 4.305 5.388l2.636-4.663c-1.060-0.599-1.551-1.292-1.762-2.091l-5.179 1.366zM55.742 24.022c2.172 1.214 4.888 1.701 7.924 1.701v-5.356c-2.544 0-4.239-0.421-5.31-1.019l-2.614 4.675zM63.665 25.723c3.257 0 6.835-0.881 10.68-2.481l-2.058-4.945c-3.443 1.433-6.299 2.070-8.622 2.070v5.356zM73.316 23.448h1.412v-5.356h-1.412v5.356zM72.058 20.57l-0.497 6.643 5.341 0.399 0.497-6.643-5.341-0.4z"></path>
</symbol>
</defs>
</svg>
